<?xml version="1.0" encoding="utf-8"?>
<!-- Generator: Adobe Illustrator 26.2.1, SVG Export Plug-In . SVG Version: 6.00 Build 0)  -->
<svg version="1.1" id="Réteg_1" xmlns="http://www.w3.org/2000/svg" xmlns:xlink="http://www.w3.org/1999/xlink" x="0px" y="0px"
	 viewBox="0 0 3840 2160" style="enable-background:new 0 0 3840 2160;" xml:space="preserve">
<style type="text/css">
	.st0{fill:#333333;}
	.st1{fill:#020203;}
	.st2{fill:#404040;}
	.st3{fill:none;}
	.st4{display:none;fill:#020203;enable-background:new    ;}
	.st5{font-family:'BrexterDemo';}
	.st6{font-size:507.4158px;}
	.st7{display:none;fill:none;}
	.st8{font-size:241.6266px;}
</style>
<path class="st0" d="M2110.9,595.5"/>
<polygon class="st1" points="2099.3,124.6 2099.3,170.9 2087.8,170.9 2087.8,124.6 "/>
<polygon class="st1" points="2064.6,124.5 2064.6,159.4 2053,159.4 2053,124.6 "/>
<polygon class="st1" points="2035.5,124.6 2035.5,176.7 2024,176.7 2024,124.5 "/>
<polygon class="st1" points="2006.6,124.5 2006.6,159.4 1995,159.4 1995,124.6 "/>
<polygon class="st1" points="1977.5,124.5 1977.5,170.8 1965.9,170.8 1965.9,124.5 "/>
<polygon class="st1" points="1942.7,124.4 1942.7,159.2 1931.1,159.2 1931.1,124.5 "/>
<polygon class="st1" points="1913.7,124.5 1913.7,176.6 1902.2,176.6 1902.2,124.4 "/>
<polygon class="st1" points="1890.4,124.4 1890.4,159.2 1878.8,159.2 1878.8,124.5 "/>
<polygon class="st1" points="1862,124.4 1862,170.6 1850.5,170.6 1850.5,124.3 "/>
<polygon class="st1" points="1832.4,124.3 1832.4,159.1 1820.9,159.1 1820.9,124.3 "/>
<path class="st2" d="M1798.2,176.4"/>
<path class="st2" d="M1798.2,124.3"/>
<polygon class="st1" points="1774.6,124.3 1774.6,159.1 1763.1,159.1 1763.1,124.3 "/>
<polygon class="st1" points="1740.1,124.3 1740.1,170.5 1728.6,170.5 1728.6,124.2 "/>
<polygon class="st1" points="1705.4,124.2 1705.4,159 1693.8,159 1693.8,124.2 "/>
<polygon class="st1" points="1676.3,124.2 1676.3,176.3 1664.9,176.3 1664.9,124.1 "/>
<polygon class="st1" points="1652.3,124.2 1652.3,159 1640.7,159 1640.7,124.2 "/>
<polygon class="st1" points="1623.8,124.5 1623.8,170.7 1612.2,170.7 1612.2,124.4 "/>
<path class="st2" d="M1577.5,124.4"/>
<path class="st2" d="M1577.5,159.2"/>
<path class="st2" d="M1548.5,124.4"/>
<path class="st2" d="M1548.5,176.5"/>
<polygon class="st1" points="1536.9,124.4 1536.9,159.2 1525.3,159.2 1525.3,124.4 "/>
<line class="st3" x1="1490.4" y1="170.6" x2="1490.4" y2="124.3"/>
<path class="st2" d="M1455.6,124.3"/>
<path class="st2" d="M1455.6,159.1"/>
<polygon class="st1" points="1443.7,124.3 1443.7,176.4 1432.2,176.4 1432.2,124.2 "/>
<polygon class="st1" points="1415.6,124.3 1415.6,159.1 1404,159.1 1404,124.3 "/>
<polygon class="st1" points="1386.5,124.2 1386.5,170.5 1374.9,170.5 1374.9,124.2 "/>
<polygon class="st1" points="1357.3,124.1 1357.3,158.9 1345.7,158.9 1345.7,124.1 "/>
<polygon class="st1" points="1593.9,124.1 1593.9,158.9 1582.4,158.9 1582.4,124.2 "/>
<polygon class="st1" points="1502.2,123.6 1502.2,169.8 1490.6,169.8 1490.6,123.5 "/>
<polygon class="st1" points="1472.5,124.5 1472.5,159.3 1461,159.3 1461,124.5 "/>
<polygon class="st1" points="1327.7,123.7 1327.7,175.8 1316.3,175.8 1316.3,123.6 "/>
<path class="st2" d="M1171.9,158.8"/>
<path class="st2" d="M1171.9,124"/>
<polygon class="st1" points="1565.8,123.4 1565.8,175.5 1554.3,175.5 1554.3,123.3 "/>
<polygon class="st1" points="1803.6,124.4 1803.6,176.5 1792.1,176.5 1792.1,124.4 "/>
<polygon class="st1" points="1298.9,124.4 1298.9,211.3 1252.4,211.3 1252.4,78.1 1298,78.1 2503.7,78.1 2111,124.6 "/>
<polygon class="st1" points="994.7,78.5 760.4,78.5 1369.6,1104 1565.1,1104 1469.9,870.6 "/>
<polygon class="st1" points="1358.7,269.8 1590.4,269.8 1945.2,863.8 2052.2,1103.1 1853.3,1103.1 "/>
<polygon class="st1" points="1469.9,870.6 1597.2,658.2 1710.1,861.3 1565.1,1104 "/>
<polygon class="st1" points="2052.2,1103.1 2278.8,738.3 2110.9,595.5 1945.2,863.8 "/>
<polygon class="st1" points="2192.4,1098 2347.7,834.6 2519.1,1098 "/>
<polygon class="st1" points="2110.9,595.5 2111,124.6 2503.7,78.1 2478.1,320.8 2246.3,321.9 2278.8,738.3 "/>
<path id="XMLID_00000127042141186769792080000010643877956358399908_" class="st1" d="M2532,1095.5c11.6-1,27.9-2.8,47.2-6.2
	c30.4-5.3,90.7-16.2,158.7-52c17.2-9.1,77.7-42.2,137.4-107.5c53.7-58.8,80.4-114.7,87.5-130.2c9.9-21.6,47.3-107.3,44.1-224.9
	c-3.2-120.1-46.8-205.7-59.1-228.5c-14.7-27.4-62.4-110.1-160.1-177.2c-110.8-76.1-222.1-88.3-272.2-90.6"/>
<path class="st2" d="M2515.5,78.5"/>
<path class="st1" d="M2368.7,329.1c63.7-25.8,119-25.6,131.3-25.4c28.3,0.4,102.2,2.6,171.3,53.1c55.8,40.7,79.1,91.6,89.1,113.9
	c25.6,57.7,25.5,107.7,25.1,122.8c-0.9,31.9-8.3,99.4-58.2,162.6c-7.1,8.9-38.7,47.8-95.9,77.4c-22.7,11.8-109.9,56.8-215.8,28.8
	c-79.5-21.1-125.5-71.8-139.3-87.4c-71.2-80.7-89.2-194.3-57.1-286.5c6.2-17.7,31-89.1,99.3-133.9
	C2338.5,341.4,2358,333.5,2368.7,329.1z"/>
<polygon class="st1" points="2191.7,264 2213.7,451 2650,297 2537.7,78.4 2329,78.4 "/>
<path class="st0" d="M2399.8,382.9c48.8-20.4,91.2-20.3,100.6-20.1c21.7,0.3,78.3,2,131.2,42c42.7,32.2,60.6,72.4,68.2,90.1
	c19.6,45.6,19.6,85.1,19.2,97.1c-0.7,25.2-6.4,78.6-44.6,128.6c-5.4,7.1-29.6,37.8-73.5,61.2c-17.4,9.3-84.2,44.9-165.3,22.7
	c-60.9-16.7-96.1-56.7-106.7-69.1c-54.6-63.8-68.3-153.6-43.7-226.5c4.7-14,23.8-70.5,76.1-105.8
	C2376.7,392.7,2391.5,386.4,2399.8,382.9z"/>
<path class="st1" d="M2426.9,436.3c31.2-14,58.6-13.5,70.8-13.1c16.1,0.5,67.1,2.9,109.3,42.9c37.3,35.4,45.1,78.5,47.2,91.8
	c2.4,14.6,10.8,78.1-33.2,131.2c-35.1,42.4-82,51.9-98.8,55.1c-16.9,3.2-54.2,9.7-95.3-8.7c-41.4-18.6-61.5-51.1-69.1-63.8
	c-20.1-33.7-23.4-66.4-23.6-84.8c-0.5-48.8,20.3-83,25.4-91C2385,455.7,2420.2,439.3,2426.9,436.3z"/>
<polygon class="st1" points="2391.2,1098.8 2544.2,1098.8 2558.3,830 2347.7,834.6 "/>
<path class="st1" d="M2544.2,1098.8"/>
<text transform="matrix(1 0 0 1 320.0172 1531.8672)" class="st4 st5 st6">Weiland</text>
<polygon class="st7" points="1455.6,1821.9 1220.9,1819.7 1222.4,1617.7 1457.1,1619.8 "/>
<text transform="matrix(1 0 0 1 1018.4269 1759.6113)" class="st4 st5 st8">/</text>
<text transform="matrix(1 0 0 1 2433.2954 1760.855)" class="st4 st5 st8">/</text>
<text transform="matrix(1 0 0 1 2555.6104 1765.3845)" class="st4 st5 st8">/</text>
<text transform="matrix(1 0 0 1 1794.6987 1738.8352)" class="st4 st5 st8">/</text>
<text transform="matrix(1 0 0 1 908.4956 2068.5576)" class="st4 st5 st6">EPITO</text>
</svg>
